<?xml version="1.0" encoding="utf-8"?>
<!-- Generator: Adobe Illustrator 24.0.1, SVG Export Plug-In . SVG Version: 6.00 Build 0)  -->
<svg version="1.1" id="_x31_0" xmlns="http://www.w3.org/2000/svg" xmlns:xlink="http://www.w3.org/1999/xlink" x="0px" y="0px"
	 viewBox="0 0 800 800" style="enable-background:new 0 0 800 800;" xml:space="preserve">
<style type="text/css">
	.st0{fill-rule:evenodd;clip-rule:evenodd;fill:none;}
	.st1{fill-rule:evenodd;clip-rule:evenodd;fill:#4F6466;}
	.st2{fill-rule:evenodd;clip-rule:evenodd;fill:#22C7B8;}
	.st3{fill-rule:evenodd;clip-rule:evenodd;fill:#566A6C;}
	.st4{fill:#4F6466;}
	.st5{font-family:'BritannicBold';}
	.st6{font-size:48.92px;}
</style>
<g>
	<g>
		<rect x="-1.78" class="st0" width="800" height="800"/>
		<path class="st1" d="M340.22,240.31c-34.6,23.63-52.24,67.32-40.78,110.09c14.51,54.14,70.15,86.27,124.29,71.76
			c44.24-11.85,73.77-51.17,75.19-94.69c-6.12,35.71-32.34,66.4-69.64,76.39c-51.1,13.69-103.61-16.63-117.3-67.72
			C302.36,300.24,314.46,263.65,340.22,240.31L340.22,240.31z"/>
		<path class="st2" d="M453.64,380.32c29.2-19.94,44.08-56.81,34.41-92.89c-12.24-45.68-59.2-72.8-104.88-60.55
			c-37.33,10-62.25,43.18-63.44,79.9c5.17-30.14,27.29-56.03,58.76-64.46c43.12-11.55,87.43,14.03,98.98,57.15
			C485.59,329.74,475.38,360.62,453.64,380.32L453.64,380.32z"/>
	</g>
	<g>
		<path class="st3" d="M403.19,342.24v15.95c0,15.94-9.53,29.22-21.26,29.22c-11.51,0-21.03-13.28-21.03-29.22v-19.71
			c6.86-1.32,12.18-7.53,12.18-15.05c0-8.41-6.86-15.28-15.28-15.28c-8.42,0-15.5,6.86-15.5,15.28c0,7.52,5.31,13.73,12.4,15.05
			v19.71c0,19.48,12.17,35.2,27.22,35.2c15.06,0,27.46-15.72,27.46-35.2v-15.95c6.19-0.89,12.39-4.21,17.92-9.96
			c0.89-0.89,1.12-1.99,0.89-3.1c7.31-9.08,11.74-21.25,11.74-30.55c0-14.39-6.86-15.93-18.38-18.38l0,0
			c-0.66-1.33-2.21-2.43-3.98-2.43c-2.43,0-4.42,1.98-4.42,4.2c0,2.22,1.99,3.99,4.42,3.99c1.1,0,1.99-0.23,2.66-0.89l0,0
			c11.3,2.43,14.39,3.1,14.39,13.51c0,8.2-4.2,19.26-10.62,27.24c-1.11,0-2.21,0.44-2.88,1.32c-3.32,3.54-8.63,7.75-14.84,7.75
			c-6.2,0-11.29-4.21-14.62-7.75c-0.88-0.88-1.76-1.32-2.87-1.32c-6.43-7.97-10.62-19.04-10.62-27.24
			c0-10.41,2.87-11.07,14.16-13.51l0,0c0.89,0.66,1.77,0.89,2.66,0.89c2.43,0,4.43-1.77,4.43-3.99c0-2.22-1.99-4.2-4.43-4.2
			c-1.77,0-3.1,1.1-3.99,2.43l0,0c-11.51,2.44-18.37,3.99-18.37,18.38c0,9.3,4.43,21.69,11.74,30.55c0,1.11,0.21,2.21,1.1,3.1
			C390.78,338.03,396.98,341.35,403.19,342.24L403.19,342.24z"/>
	</g>
</g>
<text transform="matrix(0.6199 0 0 1 277.9995 460.9473)" class="st4 st5 st6">Safa Marua Hospital</text>
</svg>
